HIERARCHY
ROOT hip
{
  OFFSET 0 0 0
  CHANNELS 6 Xposition Yposition Zposition Zrotation Yrotation Xrotation
  JOINT abdomen
  {
    OFFSET 0 20.6881 -0.73152
    CHANNELS 3 Zrotation Xrotation Yrotation
    JOINT chest
    {
      OFFSET 0 11.7043 -0.48768
      CHANNELS 3 Zrotation Xrotation Yrotation
      JOINT neck
      {
        OFFSET 0 22.1894 -2.19456
        CHANNELS 3 Zrotation Xrotation Yrotation
        JOINT head
        {
          OFFSET -0.24384 7.07133 1.2192
          CHANNELS 3 Zrotation Xrotation Yrotation
          JOINT leftEye
          {
            OFFSET 4.14528 8.04674 8.04672
            CHANNELS 3 Zrotation Xrotation Yrotation
            End Site
            {
              OFFSET 1 0 0
            }
          }
          JOINT rightEye
          {
            OFFSET -3.6576 8.04674 8.04672
            CHANNELS 3 Zrotation Xrotation Yrotation
            End Site
            {
              OFFSET 1 0 0
            }
          }
        }
      }
      JOINT rCollar
      {
        OFFSET -2.68224 19.2634 -4.8768
        CHANNELS 3 Zrotation Xrotation Yrotation
        JOINT rShldr
        {
          OFFSET -8.77824 -1.95073 1.46304
          CHANNELS 3 Zrotation Xrotation Yrotation
          JOINT rForeArm
          {
            OFFSET -28.1742 -1.7115 0.48768
            CHANNELS 3 Zrotation Xrotation Yrotation
            JOINT rHand
            {
              OFFSET -22.5879 0.773209 7.07136
              CHANNELS 3 Zrotation Xrotation Yrotation
              JOINT rThumb1
              {
                OFFSET -1.2192 -0.487915 3.41376
                CHANNELS 3 Zrotation Xrotation Yrotation
                JOINT rThumb2
                {
                  OFFSET -3.37035 -0.52449 3.41376
                  CHANNELS 3 Zrotation Xrotation Yrotation
                  End Site
                  {
                    OFFSET -1.78271 -1.18214 1.43049
                  }
                }
              }
              JOINT rIndex1
              {
                OFFSET -7.75947 0.938293 5.60832
                CHANNELS 3 Zrotation Xrotation Yrotation
                JOINT rIndex2
                {
                  OFFSET -2.54057 -0.884171 1.56538
                  CHANNELS 3 Zrotation Xrotation Yrotation
                  End Site
                  {
                    OFFSET -1.62519 -0.234802 1.16502
                  }
                }
              }
              JOINT rMid1
              {
                OFFSET -8.24714 1.18213 3.41376
                CHANNELS 3 Zrotation Xrotation Yrotation
                JOINT rMid2
                {
                  OFFSET -3.10165 -0.590103 1.0647
                  CHANNELS 3 Zrotation Xrotation Yrotation
                  End Site
                  {
                    OFFSET -2.48547 -0.328903 0.83742
                  }
                }
              }
              JOINT rRing1
              {
                OFFSET -8.82822 0.546677 1.51678
                CHANNELS 3 Zrotation Xrotation Yrotation
                JOINT rRing2
                {
                  OFFSET -2.60934 -0.819778 -0.0198488
                  CHANNELS 3 Zrotation Xrotation Yrotation
                  End Site
                  {
                    OFFSET -2.33842 -0.294052 0.168128
                  }
                }
              }
              JOINT rPinky1
              {
                OFFSET -8.27202 -0.0477905 -0.4584
                CHANNELS 3 Zrotation Xrotation Yrotation
                JOINT rPinky2
                {
                  OFFSET -1.82734 -0.647385 -0.700984
                  CHANNELS 3 Zrotation Xrotation Yrotation
                  End Site
                  {
                    OFFSET -1.69225 -0.51767 -0.607171
                  }
                }
              }
            }
          }
        }
      }
      JOINT lCollar
      {
        OFFSET 2.68224 19.2634 -4.8768
        CHANNELS 3 Zrotation Xrotation Yrotation
        JOINT lShldr
        {
          OFFSET 8.77824 -1.95073 1.46304
          CHANNELS 3 Zrotation Xrotation Yrotation
          JOINT lForeArm
          {
            OFFSET 28.1742 -1.7115 0.48768
            CHANNELS 3 Zrotation Xrotation Yrotation
            JOINT lHand
            {
              OFFSET 22.5879 0.773209 7.07136
              CHANNELS 3 Zrotation Xrotation Yrotation
              JOINT lThumb1
              {
                OFFSET 1.2192 -0.487915 3.41376
                CHANNELS 3 Zrotation Xrotation Yrotation
                JOINT lThumb2
                {
                  OFFSET 3.37035 -0.52449 3.41376
                  CHANNELS 3 Zrotation Xrotation Yrotation
                  End Site
                  {
                    OFFSET 1.78271 -1.18214 1.43049
                  }
                }
              }
              JOINT lIndex1
              {
                OFFSET 7.75947 0.938293 5.60832
                CHANNELS 3 Zrotation Xrotation Yrotation
                JOINT lIndex2
                {
                  OFFSET 2.54057 -0.884171 1.56538
                  CHANNELS 3 Zrotation Xrotation Yrotation
                  End Site
                  {
                    OFFSET 1.62519 -0.234802 1.16502
                  }
                }
              }
              JOINT lMid1
              {
                OFFSET 8.24714 1.18213 3.41376
                CHANNELS 3 Zrotation Xrotation Yrotation
                JOINT lMid2
                {
                  OFFSET 3.10165 -0.590103 1.0647
                  CHANNELS 3 Zrotation Xrotation Yrotation
                  End Site
                  {
                    OFFSET 2.48547 -0.328903 0.83742
                  }
                }
              }
              JOINT lRing1
              {
                OFFSET 8.82822 0.546677 1.51678
                CHANNELS 3 Zrotation Xrotation Yrotation
                JOINT lRing2
                {
                  OFFSET 2.60934 -0.819778 -0.0198488
                  CHANNELS 3 Zrotation Xrotation Yrotation
                  End Site
                  {
                    OFFSET 2.33842 -0.294052 0.168128
                  }
                }
              }
              JOINT lPinky1
              {
                OFFSET 8.27202 -0.0477905 -0.4584
                CHANNELS 3 Zrotation Xrotation Yrotation
                JOINT lPinky2
                {
                  OFFSET 1.82734 -0.647385 -0.700984
                  CHANNELS 3 Zrotation Xrotation Yrotation
                  End Site
                  {
                    OFFSET 1.69225 -0.51767 -0.607171
                  }
                }
              }
            }
          }
        }
      }
    }
  }
  JOINT rButtock
  {
    OFFSET -8.77824 4.35084 1.2192
    CHANNELS 3 Zrotation Xrotation Yrotation
    JOINT rThigh
    {
      OFFSET 0 -1.70687 -2.19456
      CHANNELS 3 Zrotation Xrotation Yrotation
      JOINT rShin
      {
        OFFSET 0 -36.8199 0.73152
        CHANNELS 3 Zrotation Xrotation Yrotation
        JOINT rFoot
        {
          OFFSET 0.73152 -45.1104 -5.12064
          CHANNELS 3 Zrotation Xrotation Yrotation
          End Site
          {
            OFFSET -1.1221 -3.69964 12.103
          }
        }
      }
    }
  }
  JOINT lButtock
  {
    OFFSET 8.77824 4.35084 1.2192
    CHANNELS 3 Zrotation Xrotation Yrotation
    JOINT lThigh
    {
      OFFSET 0 -1.70687 -2.19456
      CHANNELS 3 Zrotation Xrotation Yrotation
      JOINT lShin
      {
        OFFSET 0 -36.8199 0.73152
        CHANNELS 3 Zrotation Xrotation Yrotation
        JOINT lFoot
        {
          OFFSET -0.73152 -45.1104 -5.12064
          CHANNELS 3 Zrotation Xrotation Yrotation
          End Site
          {
            OFFSET 1.1221 -3.69964 12.103
          }
        }
      }
    }
  }
}
MOTION
Frames:	7
Frame Time:	0.00833333
32.8808 39.3532 0.248031 -855.975 85.74 -806.035 -8.9957 41.6335 5.49085 -5.54477 -13.4417 0.345788 -0.555329 14.992 -3.30651 -4.29253 -62.7288 -8.42325 -0.0 0.0 0.0 -0.0 0.0 0.0 2.26527e-13 -1.36813e-12 -1.94997e-13 12.0038 6.6875 59.9984 -22.3096 -16.2358 44.6032 -0.169743 11.6259 1.65727 -1.72548e-10 2.04166e-09 1.76666e-09 -2.81372e-10 3.51847e-09 3.05885e-09 -1.72545e-10 2.04166e-09 1.76665e-09 7.73091 5.47488 0.417314 -1.72549e-10 2.04166e-09 1.76666e-09 2.90554 0.965183 0.102902 -1.72542e-10 2.04166e-09 1.76666e-09 10.2786 0.731801 0.0259123 -1.72549e-10 2.04166e-09 1.76666e-09 2.22167 -0.733487 -0.20892 2.265e-13 -1.36817e-12 -1.95104e-13 -12.9688 8.74091 -67.9228 15.1957 -7.96134 -27.9914 0.929312 26.2822 -3.97974 -1.89507e-09 -8.47805e-10 -2.22606e-10 -3.27559e-09 -1.46621e-09 -3.40222e-10 -1.89508e-09 -8.47804e-10 -2.22594e-10 -7.73091 5.47488 -0.417314 -1.89507e-09 -8.47805e-10 -2.22611e-10 -2.90554 0.965183 -0.102902 -1.89507e-09 -8.47803e-10 -2.22607e-10 -10.2786 0.731801 -0.0259123 -1.89506e-09 -8.478e-10 -2.22619e-10 -2.22167 -0.733487 0.20892 -2.03217e-16 0.0 -3.88251e-19 12.3549 -57.8068 6.99203 -174.98 74.8114 175.688 -2.1203 24.5227 12.4718 2.03217e-16 0.0 3.88251e-19 41.9423 -45.2039 34.1368 174.457 78.6377 -176.465 12.7305 37.2268 -28.9402
33.2076 39.3589 0.497242 -858.55 85.5416 -808.868 -9.26706 42.2762 6.16444 -5.62022 -13.4389 0.48763 -0.315403 15.4758 -3.39588 -4.27805 -63.1711 -8.66594 -0.0 0.0 0.0 -0.0 0.0 0.0 1.04278e-13 -1.02995e-12 -1.35596e-13 13.5016 4.29655 59.5764 -21.8662 -15.5624 43.3999 -0.145879 10.8052 1.53723 -3.53126e-12 1.14076e-09 1.10588e-09 5.32316e-12 1.96501e-09 1.91428e-09 -3.52812e-12 1.14076e-09 1.10587e-09 7.73091 5.47488 0.417314 -3.53313e-12 1.14076e-09 1.10588e-09 2.90554 0.965183 0.102902 -3.52866e-12 1.14076e-09 1.10588e-09 10.2786 0.731801 0.0259123 -3.5352e-12 1.14076e-09 1.10589e-09 2.22167 -0.733487 -0.20892 1.04226e-13 -1.02999e-12 -1.3573e-13 -12.0828 8.72517 -68.4074 15.3634 -8.10954 -28.3384 0.8986 25.8821 -3.90988 -1.11817e-09 -5.15933e-10 -1.7299e-10 -1.93374e-09 -8.92998e-10 -2.72958e-10 -1.11818e-09 -5.15933e-10 -1.72973e-10 -7.73091 5.47488 -0.417314 -1.11817e-09 -5.15934e-10 -1.72993e-10 -2.90554 0.965183 -0.102902 -1.11818e-09 -5.15932e-10 -1.7299e-10 -10.2786 0.731801 -0.0259123 -1.11817e-09 -5.15929e-10 -1.73002e-10 -2.22167 -0.733487 0.20892 -2.03217e-16 0.0 -3.88251e-19 12.9648 -56.7813 7.0296 -174.813 75.4807 175.542 -2.14403 24.2806 12.6679 2.03217e-16 0.0 3.88251e-19 44.317 -45.7859 35.8724 174.891 77.4657 -176.935 13.0178 37.5764 -29.5356
33.5431 39.3504 0.747738 -860.264 85.339 -810.854 -9.58701 42.8984 6.9242 -5.6864 -13.452 0.645074 -0.0515103 15.9619 -3.49034 -4.38148 -63.5987 -8.99085 -0.0 0.0 0.0 -0.0 0.0 0.0 -2.87552e-14 -5.89342e-13 -6.4591e-14 15.0304 1.9329 59.2568 -21.3648 -14.8314 42.0974 -0.128314 10.1681 1.44439 2.16285e-10 1.11409e-10 3.94395e-10 3.79313e-10 1.89824e-10 6.81148e-10 2.16288e-10 1.1141e-10 3.94387e-10 7.73091 5.47488 0.417314 2.16282e-10 1.11408e-10 3.94401e-10 2.90554 0.965183 0.102902 2.16285e-10 1.11408e-10 3.94401e-10 10.2786 0.731801 0.0259123 2.16278e-10 1.11409e-10 3.94413e-10 2.22167 -0.733487 -0.20892 -2.88308e-14 -5.89379e-13 -6.47591e-14 -11.1541 8.74416 -68.9117 15.5292 -8.25751 -28.684 0.866997 25.4598 -3.8367 -3.19248e-10 -1.61471e-10 -1.46179e-10 -5.54564e-10 -2.81027e-10 -2.45578e-10 -3.19252e-10 -1.61471e-10 -1.46158e-10 -7.73091 5.47488 -0.417314 -3.19247e-10 -1.61472e-10 -1.4618e-10 -2.90554 0.965183 -0.102902 -3.19254e-10 -1.61471e-10 -1.46178e-10 -10.2786 0.731801 -0.0259123 -3.19248e-10 -1.61467e-10 -1.46189e-10 -2.22167 -0.733487 0.20892 -2.03217e-16 0.0 -3.88251e-19 13.6317 -55.741 7.13782 -174.619 76.1877 175.372 -2.1816 24.1056 12.842 2.03217e-16 0.0 3.88251e-19 46.7397 -46.3352 37.6483 175.25 76.2876 -177.333 13.281 37.8641 -30.142
33.8789 39.3269 0.997015 -861.382 85.1442 -812.229 -9.92209 43.4238 7.72222 -5.73873 -13.4565 0.811227 0.207293 16.4215 -3.59378 -4.59047 -63.9954 -9.39747 -0.0 0.0 0.0 -0.0 0.0 0.0 -1.08097e-13 -2.8653e-13 -1.89839e-14 16.5225 -0.351907 59.0371 -20.8369 -14.1021 40.7524 -0.119177 9.79666 1.39054 3.46793e-10 -5.50757e-10 -8.58686e-11 6.00565e-10 -9.5214e-10 -1.51191e-10 3.46795e-10 -5.50756e-10 -8.5875e-11 7.73091 5.47488 0.417314 3.4679e-10 -5.50758e-10 -8.58591e-11 2.90554 0.965183 0.102902 3.46791e-10 -5.50758e-10 -8.58599e-11 10.2786 0.731801 0.0259123 3.46784e-10 -5.50756e-10 -8.58464e-11 2.22167 -0.733487 -0.20892 -1.08187e-13 -2.86567e-13 -1.91827e-14 -10.2206 8.78418 -69.4495 15.683 -8.39596 -29.0062 0.836206 25.0398 -3.76441 1.68447e-10 4.51881e-11 -6.00775e-11 2.88746e-10 7.58849e-11 -1.08342e-10 1.68446e-10 4.51873e-11 -6.00552e-11 -7.73091 5.47488 -0.417314 1.68448e-10 4.51872e-11 -6.00775e-11 -2.90554 0.965183 -0.102902 1.68441e-10 4.51881e-11 -6.00759e-11 -10.2786 0.731801 -0.0259123 1.68448e-10 4.51913e-11 -6.0087e-11 -2.22167 -0.733487 0.20892 -2.03217e-16 0.0 -3.88251e-19 14.2946 -54.7878 7.27396 -174.408 76.8798 175.182 -2.20539 23.9287 12.9355 2.03217e-16 0.0 3.88251e-19 49.2042 -46.9455 39.4809 175.554 75.0908 -177.67 13.4744 38.0679 -30.7027
34.2061 39.2947 1.24293 -862.172 84.9579 -813.234 -10.2768 43.8356 8.58175 -5.7702 -13.4522 0.992884 0.468802 16.862 -3.70888 -4.95365 -64.3558 -9.92193 -0.0 0.0 0.0 -0.0 0.0 0.0 -1.08169e-13 -1.68816e-13 -8.23792e-15 18.031 -2.57852 58.8806 -20.2779 -13.3713 39.3421 -0.118028 9.667 1.37222 3.61442e-10 -6.83049e-10 -2.48914e-10 6.23582e-10 -1.1804e-09 -4.33932e-10 3.61444e-10 -6.83048e-10 -2.4892e-10 7.73091 5.47488 0.417314 3.61439e-10 -6.8305e-10 -2.48904e-10 2.90554 0.965183 0.102902 3.61441e-10 -6.8305e-10 -2.48906e-10 10.2786 0.731801 0.0259123 3.61432e-10 -6.83048e-10 -2.48894e-10 2.22167 -0.733487 -0.20892 -1.0826e-13 -1.68853e-13 -8.46271e-15 -9.28427 8.85431 -70.0444 15.8223 -8.52292 -29.2989 0.806172 24.6222 -3.69299 1.71083e-10 2.93034e-11 1.2355e-10 2.97004e-10 4.86862e-11 2.08884e-10 1.71082e-10 2.93019e-11 1.2357e-10 -7.73091 5.47488 -0.417314 1.71084e-10 2.93018e-11 1.23548e-10 -2.90554 0.965183 -0.102902 1.71076e-10 2.9303e-11 1.23551e-10 -10.2786 0.731801 -0.0259123 1.71085e-10 2.93066e-11 1.2354e-10 -2.22167 -0.733487 0.20892 -2.03217e-16 0.0 -3.88251e-19 14.9622 -53.9333 7.44493 -174.176 77.5574 174.965 -2.20634 23.7428 12.8953 2.03217e-16 0.0 3.88251e-19 51.7429 -47.611 41.4002 175.818 73.8652 -177.964 13.5779 38.1654 -31.2103
34.5172 39.2501 1.48535 -862.794 84.7861 -814.001 -10.6615 44.1707 9.51385 -5.78515 -13.45 1.19085 0.743598 17.2937 -3.8331 -5.4659 -64.6871 -10.5573 -0.0 0.0 0.0 -0.0 0.0 0.0 -6.61518e-14 -1.13666e-13 -1.27533e-14 19.5744 -4.77021 58.7783 -19.6667 -12.6063 37.8501 -0.122271 9.75074 1.38484 3.31352e-10 -5.59978e-10 -2.48709e-10 5.70211e-10 -9.68433e-10 -4.34165e-10 3.31353e-10 -5.59977e-10 -2.48717e-10 7.73091 5.47488 0.417314 3.31351e-10 -5.59978e-10 -2.48702e-10 2.90554 0.965183 0.102902 3.31355e-10 -5.59978e-10 -2.48703e-10 10.2786 0.731801 0.0259123 3.31344e-10 -5.59976e-10 -2.48695e-10 2.22167 -0.733487 -0.20892 -6.62367e-14 -1.13704e-13 -1.30049e-14 -8.32522 8.94932 -70.6824 15.953 -8.64345 -29.5738 0.776254 24.1962 -3.62063 -1.0528e-10 -1.08481e-10 3.55472e-10 -1.75309e-10 -1.89019e-10 6.1617e-10 -1.05283e-10 -1.08484e-10 3.55486e-10 -7.73091 5.47488 -0.417314 -1.05279e-10 -1.08484e-10 3.55466e-10 -2.90554 0.965183 -0.102902 -1.05287e-10 -1.08482e-10 3.55471e-10 -10.2786 0.731801 -0.0259123 -1.05275e-10 -1.08478e-10 3.5546e-10 -2.22167 -0.733487 0.20892 -2.03217e-16 0.0 -3.88251e-19 15.6531 -53.1283 7.66242 -173.911 78.2437 174.714 -2.20144 23.5806 12.7658 2.03217e-16 0.0 3.88251e-19 54.3615 -48.2836 43.4022 176.047 72.6199 -178.221 13.6128 38.1761 -31.6883
34.8156 39.1964 1.72353 -863.386 84.6274 -814.675 -11.0426 44.4364 10.4462 -5.79636 -13.4418 1.38917 1.00648 17.692 -3.96234 -6.03022 -64.9931 -11.2349 -0.0 0.0 0.0 -0.0 0.0 0.0 -1.17141e-14 -1.06558e-13 -2.59375e-14 21.0367 -6.86988 58.7491 -19.0225 -11.8348 36.3366 -0.131467 10.1229 1.43876 2.62921e-10 -3.41714e-10 -1.63265e-10 4.51433e-10 -5.92211e-10 -2.86387e-10 2.62922e-10 -3.41712e-10 -1.63274e-10 7.73091 5.47488 0.417314 2.62922e-10 -3.41713e-10 -1.6326e-10 2.90554 0.965183 0.102902 2.62928e-10 -3.41713e-10 -1.63262e-10 10.2786 0.731801 0.0259123 2.62915e-10 -3.41711e-10 -1.63258e-10 2.22167 -0.733487 -0.20892 -1.17881e-14 -1.06596e-13 -2.62143e-14 -7.35036 9.03826 -71.3206 16.0772 -8.75908 -29.8356 0.747011 23.7694 -3.54863 -4.24073e-10 -2.75481e-10 5.86581e-10 -7.20886e-10 -4.77067e-10 1.02316e-09 -4.24078e-10 -2.75484e-10 5.8659e-10 -7.73091 5.47488 -0.417314 -4.24073e-10 -2.75485e-10 5.86572e-10 -2.90554 0.965183 -0.102902 -4.2408e-10 -2.75482e-10 5.86579e-10 -10.2786 0.731801 -0.0259123 -4.24066e-10 -2.75478e-10 5.86568e-10 -2.22167 -0.733487 0.20892 -2.03217e-16 0.0 -3.88251e-19 16.3289 -52.3829 7.89666 -173.617 78.9199 174.435 -2.20113 23.4336 12.6343 2.03217e-16 0.0 3.88251e-19 57.0312 -48.9922 45.4693 176.244 71.3714 -178.444 13.5953 38.1411 -32.1262
